# xmcd
#
# Track frame offsets:
#	150
#	16509
#	33897
#	54400
#	80086
#	105577
#	137969
#	154386
#	166316
#	188699
#	208361
#	222881
#	235697
#	253546
#	268980
#	287940
#	302897
#
# Disc length: 4584
#
# Revision: 1
# Processed by: cddbd v1.5.1PL0 Copyright (c) Steve Scherf et al.
# Submitted via: audiograbber 1.80
# Normalized: r0:DSWAP,DSETVAR1
#
DISCID=f411e611
DTITLE=Various Artist - Southern Rock
DYEAR=1900
DGENRE=
TTITLE0=The Allman Brothers Band - Piste  1
TTITLE1=Little Feat - Piste  2
TTITLE2=38 Special - Piste  3
TTITLE3=Delaney and Bonnie and Friends - Piste  4
TTITLE4=Stevie Ray Vaughan - Piste  5
TTITLE5=Elvin Bishop - Piste  6
TTITLE6=Wet Willie - Piste  7
TTITLE7=Black Oak Arkansas - Piste  8
TTITLE8=Molly Hatchet - Piste  9
TTITLE9=Greg Allman - Piste 10
TTITLE10=Atlanta Rhythm Section - Piste 11
TTITLE11=Dr. John - Piste 12
TTITLE12=Charlie Daniels - Piste 13
TTITLE13=Dobie Gray - Piste 14
TTITLE14=Stillwater - Piste 15
TTITLE15=Fabulous Thunderbirds - Piste 16
TTITLE16=Lynyrd Skynyrd - Piste 17
EXTD=
EXTT0=
EXTT1=
EXTT2=
EXTT3=
EXTT4=
EXTT5=
EXTT6=
EXTT7=
EXTT8=
EXTT9=
EXTT10=
EXTT11=
EXTT12=
EXTT13=
EXTT14=
EXTT15=
EXTT16=
PLAYORDER=
